<?xml version="1.0" standalone="no"?><!DOCTYPE svg PUBLIC "-//W3C//DTD SVG 1.1//EN" "http://www.w3.org/Graphics/SVG/1.1/DTD/svg11.dtd"><svg t="1550734843788" class="icon" style="" viewBox="0 0 1026 1024" version="1.1" xmlns="http://www.w3.org/2000/svg" p-id="1979" xmlns:xlink="http://www.w3.org/1999/xlink" width="20.0390625" height="20"><defs><style type="text/css"></style></defs><path d="M1008.148607 963.764706l-259.962848-253.622291c63.405573-76.086687 101.448916-171.195046 101.448916-278.98452 0-234.600619-190.216718-431.157895-424.817338-431.157895S0 190.216718 0 431.157895c0 234.600619 190.216718 431.157895 424.817337 431.157894 107.789474 0 202.897833-38.043344 272.643963-101.448916l259.962849 253.622291c12.681115 12.681115 31.702786 12.681115 44.383901 0 19.021672-25.362229 19.021672-44.383901 6.340557-50.724458zM69.74613 431.157895C69.74613 228.260062 228.260062 63.405573 424.817337 63.405573c196.557276 0 361.411765 164.854489 361.411765 361.411764s-158.513932 361.411765-361.411765 361.411765c-196.557276 6.340557-355.071207-158.513932-355.071207-355.071207z" fill="#333333" p-id="1980"></path></svg>